<mxfile host="app.diagrams.net" modified="2021-07-19T06:49:38.365Z" agent="5.0 (Macintosh; Intel Mac OS X 10_15_7) AppleWebKit/537.36 (KHTML, like Gecko) Chrome/91.0.4472.114 Safari/537.36" etag="Q7YDbm6rsCKmB8cpxW2e" version="14.7.3" type="github">
  <diagram id="a7NZpuPjOAFKSKxj3Jqy" name="Page-1">
    <mxGraphModel dx="1426" dy="771" grid="1" gridSize="10" guides="1" tooltips="1" connect="1" arrows="1" fold="1" page="1" pageScale="1" pageWidth="827" pageHeight="1169" math="0" shadow="0">
      <root>
        <mxCell id="0" />
        <mxCell id="1" parent="0" />
        <mxCell id="QpgupwLRZFv-wvmgvdKz-8" style="edgeStyle=orthogonalEdgeStyle;rounded=0;orthogonalLoop=1;jettySize=auto;html=1;entryX=1;entryY=0.5;entryDx=0;entryDy=0;" edge="1" parent="1" source="QpgupwLRZFv-wvmgvdKz-7" target="QpgupwLRZFv-wvmgvdKz-9">
          <mxGeometry relative="1" as="geometry">
            <mxPoint x="200" y="120" as="targetPoint" />
          </mxGeometry>
        </mxCell>
        <mxCell id="QpgupwLRZFv-wvmgvdKz-11" style="edgeStyle=orthogonalEdgeStyle;rounded=0;orthogonalLoop=1;jettySize=auto;html=1;exitX=1;exitY=0.25;exitDx=0;exitDy=0;" edge="1" parent="1" source="QpgupwLRZFv-wvmgvdKz-7">
          <mxGeometry relative="1" as="geometry">
            <mxPoint x="240" y="160" as="targetPoint" />
          </mxGeometry>
        </mxCell>
        <mxCell id="QpgupwLRZFv-wvmgvdKz-7" value="" style="whiteSpace=wrap;html=1;" vertex="1" parent="1">
          <mxGeometry x="40" y="40" width="120" height="60" as="geometry" />
        </mxCell>
        <mxCell id="QpgupwLRZFv-wvmgvdKz-10" style="edgeStyle=orthogonalEdgeStyle;rounded=0;orthogonalLoop=1;jettySize=auto;html=1;exitX=1;exitY=1;exitDx=0;exitDy=0;fillColor=#e1d5e7;strokeColor=#9673a6;" edge="1" parent="1" source="QpgupwLRZFv-wvmgvdKz-9">
          <mxGeometry relative="1" as="geometry">
            <mxPoint x="200" y="120" as="targetPoint" />
          </mxGeometry>
        </mxCell>
        <mxCell id="QpgupwLRZFv-wvmgvdKz-9" value="" style="ellipse;whiteSpace=wrap;html=1;" vertex="1" parent="1">
          <mxGeometry x="40" y="160" width="80" height="80" as="geometry" />
        </mxCell>
        <mxCell id="QpgupwLRZFv-wvmgvdKz-12" value="" style="shape=table;html=1;whiteSpace=wrap;startSize=0;container=1;collapsible=0;childLayout=tableLayout;" vertex="1" parent="1">
          <mxGeometry x="40" y="280" width="320" height="100" as="geometry" />
        </mxCell>
        <mxCell id="QpgupwLRZFv-wvmgvdKz-13" value="" style="shape=partialRectangle;html=1;whiteSpace=wrap;collapsible=0;dropTarget=0;pointerEvents=0;fillColor=none;top=0;left=0;bottom=0;right=0;points=[[0,0.5],[1,0.5]];portConstraint=eastwest;" vertex="1" parent="QpgupwLRZFv-wvmgvdKz-12">
          <mxGeometry width="320" height="50" as="geometry" />
        </mxCell>
        <mxCell id="QpgupwLRZFv-wvmgvdKz-14" value="" style="shape=partialRectangle;html=1;whiteSpace=wrap;connectable=0;overflow=hidden;fillColor=none;top=0;left=0;bottom=0;right=0;" vertex="1" parent="QpgupwLRZFv-wvmgvdKz-13">
          <mxGeometry width="64" height="50" as="geometry" />
        </mxCell>
        <mxCell id="QpgupwLRZFv-wvmgvdKz-15" value="" style="shape=partialRectangle;html=1;whiteSpace=wrap;connectable=0;overflow=hidden;fillColor=none;top=0;left=0;bottom=0;right=0;" vertex="1" parent="QpgupwLRZFv-wvmgvdKz-13">
          <mxGeometry x="64" width="64" height="50" as="geometry" />
        </mxCell>
        <mxCell id="QpgupwLRZFv-wvmgvdKz-16" value="" style="shape=partialRectangle;html=1;whiteSpace=wrap;connectable=0;overflow=hidden;fillColor=none;top=0;left=0;bottom=0;right=0;" vertex="1" parent="QpgupwLRZFv-wvmgvdKz-13">
          <mxGeometry x="128" width="64" height="50" as="geometry" />
        </mxCell>
        <mxCell id="QpgupwLRZFv-wvmgvdKz-17" value="" style="shape=partialRectangle;html=1;whiteSpace=wrap;connectable=0;overflow=hidden;fillColor=none;top=0;left=0;bottom=0;right=0;" vertex="1" parent="QpgupwLRZFv-wvmgvdKz-13">
          <mxGeometry x="192" width="64" height="50" as="geometry" />
        </mxCell>
        <mxCell id="QpgupwLRZFv-wvmgvdKz-18" value="" style="shape=partialRectangle;html=1;whiteSpace=wrap;connectable=0;overflow=hidden;fillColor=none;top=0;left=0;bottom=0;right=0;" vertex="1" parent="QpgupwLRZFv-wvmgvdKz-13">
          <mxGeometry x="256" width="64" height="50" as="geometry" />
        </mxCell>
        <mxCell id="QpgupwLRZFv-wvmgvdKz-19" value="" style="shape=partialRectangle;html=1;whiteSpace=wrap;collapsible=0;dropTarget=0;pointerEvents=0;fillColor=none;top=0;left=0;bottom=0;right=0;points=[[0,0.5],[1,0.5]];portConstraint=eastwest;" vertex="1" parent="QpgupwLRZFv-wvmgvdKz-12">
          <mxGeometry y="50" width="320" height="50" as="geometry" />
        </mxCell>
        <mxCell id="QpgupwLRZFv-wvmgvdKz-20" value="" style="shape=partialRectangle;html=1;whiteSpace=wrap;connectable=0;overflow=hidden;fillColor=none;top=0;left=0;bottom=0;right=0;" vertex="1" parent="QpgupwLRZFv-wvmgvdKz-19">
          <mxGeometry width="64" height="50" as="geometry" />
        </mxCell>
        <mxCell id="QpgupwLRZFv-wvmgvdKz-21" value="" style="shape=partialRectangle;html=1;whiteSpace=wrap;connectable=0;overflow=hidden;fillColor=none;top=0;left=0;bottom=0;right=0;" vertex="1" parent="QpgupwLRZFv-wvmgvdKz-19">
          <mxGeometry x="64" width="64" height="50" as="geometry" />
        </mxCell>
        <mxCell id="QpgupwLRZFv-wvmgvdKz-22" value="" style="shape=partialRectangle;html=1;whiteSpace=wrap;connectable=0;overflow=hidden;fillColor=none;top=0;left=0;bottom=0;right=0;" vertex="1" parent="QpgupwLRZFv-wvmgvdKz-19">
          <mxGeometry x="128" width="64" height="50" as="geometry" />
        </mxCell>
        <mxCell id="QpgupwLRZFv-wvmgvdKz-23" value="" style="shape=partialRectangle;html=1;whiteSpace=wrap;connectable=0;overflow=hidden;fillColor=none;top=0;left=0;bottom=0;right=0;" vertex="1" parent="QpgupwLRZFv-wvmgvdKz-19">
          <mxGeometry x="192" width="64" height="50" as="geometry" />
        </mxCell>
        <mxCell id="QpgupwLRZFv-wvmgvdKz-24" value="" style="shape=partialRectangle;html=1;whiteSpace=wrap;connectable=0;overflow=hidden;fillColor=none;top=0;left=0;bottom=0;right=0;" vertex="1" parent="QpgupwLRZFv-wvmgvdKz-19">
          <mxGeometry x="256" width="64" height="50" as="geometry" />
        </mxCell>
      </root>
    </mxGraphModel>
  </diagram>
</mxfile>
